<svg version="1.1" id="Layer_1" xmlns="http://www.w3.org/2000/svg" xmlns:xlink="http://www.w3.org/1999/xlink" x="0px" y="0px"
	 width="100%" viewBox="0 0 50 50" enable-background="new 0 0 50 50" xml:space="preserve">
<path fill="#5D17E9" opacity="1.000000" stroke="none" 
	d="
M22.000307,51.000000 
	C14.684175,51.000000 7.867962,51.000000 1.025874,51.000000 
	C1.025874,34.392372 1.025874,17.784695 1.025874,1.088509 
	C17.565485,1.088509 34.131599,1.088509 50.848858,1.088509 
	C50.848858,17.665627 50.848858,34.332649 50.848858,51.000000 
	C41.452614,51.000000 31.976419,51.000000 22.000307,51.000000 
M34.046165,44.153934 
	C34.046165,44.153934 34.087975,43.974640 33.796680,43.775875 
	C33.470253,43.837860 33.143829,43.899841 32.817402,43.961830 
	C33.203922,44.002087 33.590443,44.042343 34.046165,44.153934 
M20.045490,8.155293 
	C20.045490,8.155293 20.086931,7.973698 19.726540,7.783819 
	C19.274088,7.879555 18.821634,7.975290 18.369183,8.071026 
	C18.450994,8.310700 18.532804,8.550375 18.614616,8.790050 
	C19.068539,8.554397 19.522459,8.318745 20.045490,8.155293 
M11.082079,38.444260 
	C11.410751,38.567627 11.739423,38.690990 12.068095,38.814358 
	C11.747276,38.513538 11.426457,38.212723 10.817584,37.358437 
	C10.155120,36.377514 9.492656,35.396587 8.830192,34.415665 
	C8.474323,34.718880 8.118455,35.022095 7.762587,35.325310 
	C8.814987,36.249352 9.867388,37.173393 11.082079,38.444260 
M26.108452,38.596859 
	C32.159328,32.327492 30.168865,24.318726 30.660538,16.880892 
	C30.702753,16.242268 29.170372,15.040757 28.238325,14.884917 
	C25.719084,14.463696 23.129082,14.465668 20.567152,14.299754 
	C20.387856,14.928964 20.208559,15.558174 20.029261,16.187384 
	C22.180347,17.115437 24.331432,18.043489 26.625963,19.033428 
	C28.195019,31.414030 26.491884,35.554592 19.222353,36.419205 
	C20.229357,40.007893 22.698507,39.856781 26.108452,38.596859 
M39.891228,40.466446 
	C41.594807,38.269611 43.298382,36.072777 45.001961,33.875942 
	C44.368000,33.491581 43.734039,33.107224 43.100079,32.722866 
	C41.848591,35.267376 40.597099,37.811890 39.891228,40.466446 
M25.771423,43.991165 
	C23.746534,43.991165 21.721643,43.991165 19.696754,43.991165 
	C19.736290,44.567993 19.775826,45.144817 19.815361,45.721645 
	C22.513042,45.519390 25.210722,45.317131 27.908403,45.114876 
	C27.889984,44.812984 27.871565,44.511093 27.853146,44.209202 
	C27.365908,44.140228 26.878672,44.071255 25.771423,43.991165 
M45.800781,28.388067 
	C45.693371,27.041866 45.585964,25.695663 45.478558,24.349463 
	C44.880341,24.556013 44.282120,24.762566 43.683903,24.969116 
	C44.318989,26.288233 44.954075,27.607347 45.800781,28.388067 
M40.881729,14.167467 
	C41.189575,14.450078 41.492737,14.738481 41.817032,15.000752 
	C41.836258,15.016300 42.025242,14.821937 42.135227,14.725252 
	C41.794170,14.475549 41.453114,14.225845 40.881729,14.167467 
M7.922921,25.469183 
	C7.801177,25.220671 7.679432,24.972158 7.557688,24.723646 
	C7.408643,25.074844 7.259598,25.426041 7.110553,25.777239 
	C7.371683,25.786316 7.632813,25.795391 7.922921,25.469183 
M7.026187,31.749540 
	C7.323092,31.825598 7.619996,31.901655 7.916900,31.977713 
	C7.895798,31.711140 7.874696,31.444569 7.853593,31.177994 
	C7.520416,31.284739 7.187239,31.391483 7.026187,31.749540 
M10.746777,14.070627 
	C10.882825,13.975466 11.018872,13.880304 11.154921,13.785144 
	C11.021952,13.811981 10.888983,13.838820 10.746777,14.070627 
M14.875125,42.225971 
	C14.992334,42.161972 15.109544,42.097973 15.226755,42.033978 
	C15.140656,41.937302 15.054555,41.840626 14.968452,41.743950 
	C14.893132,41.854877 14.817813,41.965805 14.875125,42.225971 
M7.940279,19.769497 
	C8.003489,19.772429 8.066697,19.775358 7.940279,19.769497 
M17.643848,43.340733 
	C17.577379,43.463367 17.510908,43.586006 17.444437,43.708641 
	C17.526987,43.639442 17.609537,43.570244 17.643848,43.340733 
M36.644577,42.334278 
	C36.576946,42.458843 36.509315,42.583408 36.441685,42.707970 
	C36.525616,42.637695 36.609550,42.567421 36.644577,42.334278 
M44.013290,20.268753 
	C43.882141,20.236444 43.750992,20.204138 43.619843,20.171831 
	C43.708958,20.238344 43.798073,20.304857 44.013290,20.268753 
M37.626709,10.658378 
	C37.573528,10.677577 37.520344,10.696776 37.626709,10.658378 
M31.702772,7.479780 
	C31.582642,7.517147 31.462511,7.554513 31.342381,7.591880 
	C31.446217,7.607795 31.550051,7.623710 31.702772,7.479780 
M42.936886,17.494570 
	C42.936886,17.494570 42.984322,17.440647 42.936886,17.494570 
M9.494596,17.068344 
	C9.494596,17.068344 9.436749,17.017870 9.494596,17.068344 
M13.544424,12.026786 
	C13.544424,12.026786 13.478814,12.049448 13.544424,12.026786 
M35.495922,10.476000 
	C35.495922,10.476000 35.507725,10.512592 35.495922,10.476000 
z"/>
<path fill="#EFE9FD" opacity="1.000000" stroke="none" 
	d="
M25.792164,38.779533 
	C22.698507,39.856781 20.229357,40.007893 19.222353,36.419205 
	C26.491884,35.554592 28.195019,31.414030 26.625963,19.033428 
	C24.331432,18.043489 22.180347,17.115437 20.029261,16.187384 
	C20.208559,15.558174 20.387856,14.928964 20.567152,14.299754 
	C23.129082,14.465668 25.719084,14.463696 28.238325,14.884917 
	C29.170372,15.040757 30.702753,16.242268 30.660538,16.880892 
	C30.168865,24.318726 32.159328,32.327492 25.792164,38.779533 
z"/>
<path fill="#5D19E6" opacity="1.000000" stroke="none" 
	d="
M39.618420,40.411423 
	C40.597099,37.811890 41.848591,35.267376 43.100079,32.722866 
	C43.734039,33.107224 44.368000,33.491581 45.001961,33.875942 
	C43.298382,36.072777 41.594807,38.269611 39.618420,40.411423 
z"/>
<path fill="#5D19E6" opacity="1.000000" stroke="none" 
	d="
M26.081429,43.996723 
	C26.878672,44.071255 27.365908,44.140228 27.853146,44.209202 
	C27.871565,44.511093 27.889984,44.812984 27.908403,45.114876 
	C25.210722,45.317131 22.513042,45.519390 19.815361,45.721645 
	C19.775826,45.144817 19.736290,44.567993 19.696754,43.991165 
	C21.721643,43.991165 23.746534,43.991165 26.081429,43.996723 
z"/>
<path fill="#5D19E6" opacity="1.000000" stroke="none" 
	d="
M45.694969,28.657265 
	C44.954075,27.607347 44.318989,26.288233 43.683903,24.969116 
	C44.282120,24.762566 44.880341,24.556013 45.478558,24.349463 
	C45.585964,25.695663 45.693371,27.041866 45.694969,28.657265 
z"/>
<path fill="#5D19E6" opacity="1.000000" stroke="none" 
	d="
M10.919788,38.097435 
	C9.867388,37.173393 8.814987,36.249352 7.762587,35.325310 
	C8.118455,35.022095 8.474323,34.718880 8.830192,34.415665 
	C9.492656,35.396587 10.155120,36.377514 10.913891,37.680290 
	C11.010197,38.002148 10.919788,38.097435 10.919788,38.097435 
z"/>
<path fill="#5D19E6" opacity="1.000000" stroke="none" 
	d="
M40.996895,14.071804 
	C41.453114,14.225845 41.794170,14.475549 42.135227,14.725253 
	C42.025242,14.821937 41.836258,15.016300 41.817032,15.000752 
	C41.492737,14.738481 41.189575,14.450078 40.996895,14.071804 
z"/>
<path fill="#5D19E6" opacity="1.000000" stroke="none" 
	d="
M7.908432,25.636826 
	C7.632813,25.795391 7.371683,25.786316 7.110553,25.777239 
	C7.259598,25.426041 7.408643,25.074844 7.557688,24.723646 
	C7.679432,24.972158 7.801177,25.220671 7.908432,25.636826 
z"/>
<path fill="#5D19E6" opacity="1.000000" stroke="none" 
	d="
M6.940125,31.623882 
	C7.187239,31.391483 7.520416,31.284739 7.853593,31.177994 
	C7.874696,31.444569 7.895798,31.711140 7.916900,31.977713 
	C7.619996,31.901655 7.323092,31.825598 6.940125,31.623882 
z"/>
<path fill="#5D19E6" opacity="1.000000" stroke="none" 
	d="
M10.751395,13.968143 
	C10.888983,13.838820 11.021952,13.811981 11.154921,13.785143 
	C11.018872,13.880304 10.882825,13.975466 10.751395,13.968143 
z"/>
<path fill="#5D19E6" opacity="1.000000" stroke="none" 
	d="
M14.808809,42.151352 
	C14.817813,41.965805 14.893132,41.854877 14.968453,41.743950 
	C15.054555,41.840626 15.140656,41.937302 15.226754,42.033978 
	C15.109544,42.097973 14.992334,42.161972 14.808809,42.151352 
z"/>
<path fill="#5D19E6" opacity="1.000000" stroke="none" 
	d="
M11.057918,37.957024 
	C11.426457,38.212723 11.747276,38.513538 12.068095,38.814358 
	C11.739423,38.690990 11.410751,38.567627 11.000934,38.270847 
	C10.919788,38.097435 11.010197,38.002148 11.057918,37.957024 
z"/>
<path fill="#5D19E6" opacity="1.000000" stroke="none" 
	d="
M8.035093,19.773893 
	C8.066697,19.775358 8.003489,19.772429 8.035093,19.773893 
z"/>
<path fill="#5D19E6" opacity="1.000000" stroke="none" 
	d="
M19.976381,8.083092 
	C19.522459,8.318745 19.068539,8.554397 18.614616,8.790050 
	C18.532804,8.550375 18.450994,8.310700 18.369183,8.071026 
	C18.821634,7.975290 19.274088,7.879555 19.876383,7.903364 
	C20.026226,8.022908 19.976381,8.083092 19.976381,8.083092 
z"/>
<path fill="#5D19E6" opacity="1.000000" stroke="none" 
	d="
M33.976963,44.082603 
	C33.590443,44.042343 33.203922,44.002087 32.817402,43.961830 
	C33.143829,43.899841 33.470253,43.837860 33.911854,43.899445 
	C34.027027,44.023018 33.976963,44.082600 33.976963,44.082603 
z"/>
<path fill="#5D19E6" opacity="1.000000" stroke="none" 
	d="
M17.667967,43.420891 
	C17.609537,43.570244 17.526987,43.639442 17.444437,43.708641 
	C17.510908,43.586006 17.577379,43.463367 17.667967,43.420891 
z"/>
<path fill="#5D19E6" opacity="1.000000" stroke="none" 
	d="
M36.669029,42.415710 
	C36.609550,42.567421 36.525616,42.637695 36.441689,42.707970 
	C36.509315,42.583408 36.576946,42.458843 36.669029,42.415710 
z"/>
<path fill="#5D19E6" opacity="1.000000" stroke="none" 
	d="
M43.950241,20.320063 
	C43.798073,20.304857 43.708958,20.238344 43.619843,20.171829 
	C43.750992,20.204138 43.882141,20.236444 43.950241,20.320063 
z"/>
<path fill="#5D19E6" opacity="1.000000" stroke="none" 
	d="
M37.546936,10.687176 
	C37.520344,10.696776 37.573528,10.677577 37.546936,10.687176 
z"/>
<path fill="#5D19E6" opacity="1.000000" stroke="none" 
	d="
M31.678329,7.559702 
	C31.550051,7.623710 31.446217,7.607795 31.342381,7.591880 
	C31.462511,7.554513 31.582642,7.517147 31.678329,7.559702 
z"/>
<path fill="#5D19E6" opacity="1.000000" stroke="none" 
	d="
M42.960602,17.467609 
	C42.984322,17.440647 42.936886,17.494570 42.960602,17.467609 
z"/>
<path fill="#5D19E6" opacity="1.000000" stroke="none" 
	d="
M9.465672,17.043106 
	C9.436749,17.017870 9.494596,17.068344 9.465672,17.043106 
z"/>
<path fill="#5D19E6" opacity="1.000000" stroke="none" 
	d="
M13.511620,12.038116 
	C13.478814,12.049448 13.544424,12.026786 13.511620,12.038116 
z"/>
<path fill="#5D19E6" opacity="1.000000" stroke="none" 
	d="
M35.501823,10.494296 
	C35.507725,10.512592 35.495922,10.476000 35.501823,10.494296 
z"/>
<path fill="#5D19E6" opacity="1.000000" stroke="none" 
	d="
M20.056580,7.998303 
	C20.086931,7.973698 20.045490,8.155293 20.010937,8.119192 
	C19.976381,8.083092 20.026226,8.022908 20.056580,7.998303 
z"/>
<path fill="#5D19E6" opacity="1.000000" stroke="none" 
	d="
M34.057503,43.998829 
	C34.087975,43.974640 34.046165,44.153934 34.011566,44.118267 
	C33.976963,44.082600 34.027027,44.023018 34.057503,43.998829 
z"/>
</svg>