<svg version="1.1" xmlns="http://www.w3.org/2000/svg" viewBox="2 45 611.25 109.32">
<path d="M0 0 C14.85 0 29.7 0 45 0 C45 3.63 45 7.26 45 11 C42.03 11.99 39.06 12.98 36 14 C35.58653404 20.54357331 37.12462422 26.25563764 38.80859375 32.55078125 C39.09477066 33.64593552 39.38094757 34.74108978 39.67579651 35.86943054 C40.27964774 38.17417068 40.887554 40.47785175 41.49926758 42.78051758 C42.43834773 46.31569129 43.36576599 49.85376204 44.29101562 53.39257812 C44.87953779 55.63298875 45.46870785 57.8732293 46.05859375 60.11328125 C46.3377916 61.17468826 46.61698944 62.23609528 46.90464783 63.32966614 C47.16484207 64.30795883 47.42503632 65.28625153 47.69311523 66.29418945 C47.92183823 67.15687943 48.15056122 68.0195694 48.38621521 68.90840149 C48.94246574 71.03265374 48.94246574 71.03265374 50 73 C50.25056152 72.08226807 50.50112305 71.16453613 50.75927734 70.21899414 C55.88115634 51.48914042 61.16300984 32.82485796 66.86279297 14.26196289 C67.06632889 13.59882584 67.26986481 12.93568878 67.47956848 12.25245667 C68.02703558 10.47180423 68.57701916 8.69192604 69.12719727 6.91210938 C69.81253028 4.62549339 70.42104079 2.31583683 71 0 C75.95 0 80.9 0 86 0 C88.17634497 6.83966503 90.3446839 13.68180384 92.50634766 20.52612305 C93.23929806 22.8431869 93.97425083 25.15961852 94.71142578 27.4753418 C99.61220871 42.87636974 104.106836 58.31233745 108 74 C108.27150879 73.01942627 108.54301758 72.03885254 108.82275391 71.02856445 C111.23370972 62.32404501 113.65059953 53.62120276 116.07502747 44.92042542 C117.3566569 40.31903407 118.62936776 35.71532793 119.89453125 31.109375 C120.40846291 29.26030788 120.92274617 27.41133841 121.4375 25.5625 C121.65937988 24.74370361 121.88125977 23.92490723 122.10986328 23.08129883 C123.26484744 18.96971476 124.56383457 15.57256913 127 12 C123.37 12.33 119.74 12.66 116 13 C116 8.71 116 4.42 116 0 C127.55 0 139.1 0 151 0 C151 3.63 151 7.26 151 11 C148.81901042 11.78125 146.63802083 12.5625 144.45703125 13.34375 C138.2260276 17.5439814 135.92100071 25.31581087 133.87109375 32.21875 C133.59960007 33.09892288 133.32810638 33.97909576 133.04838562 34.88594055 C132.16687616 37.75399965 131.30200314 40.62677384 130.4375 43.5 C129.82823299 45.49466656 129.21803227 47.48904814 128.60693359 49.4831543 C126.72149129 55.6505002 124.8596819 61.82484747 123 68 C122.39388075 70.00737353 121.78760051 72.01469847 121.18115234 74.02197266 C117.76336177 85.34085881 114.37199226 96.66738865 111 108 C106.05 108 101.1 108 96 108 C93.56829739 100.66429963 91.14167838 93.32696235 88.72355938 85.9867754 C87.60009495 82.5771582 86.47456387 79.16825478 85.34399414 75.76098633 C84.2495515 72.46232501 83.16094987 69.16178524 82.07608986 65.85996056 C81.46687876 64.01063997 80.85189451 62.16322432 80.23674011 60.31587219 C77.71569715 52.62198124 75.68226341 44.9196362 74 37 C73.65710938 38.19882813 73.31421875 39.39765625 72.9609375 40.6328125 C68.95368565 54.54445679 64.78947708 68.40793021 60.58770752 82.26190186 C59.9443249 84.38417121 59.30203676 86.50677266 58.66082764 88.62969971 C57.74848707 91.64866102 56.83189009 94.66629674 55.9140625 97.68359375 C55.49571136 99.07110588 55.49571136 99.07110588 55.06890869 100.48664856 C54.81107605 101.33079819 54.55324341 102.17494781 54.28759766 103.04467773 C54.06222321 103.78725327 53.83684875 104.5298288 53.60464478 105.29490662 C53 107 53 107 52 108 C49.64686445 108.07271741 47.29166332 108.08370868 44.9375 108.0625 C43.00197266 108.04896484 43.00197266 108.04896484 41.02734375 108.03515625 C40.02832031 108.02355469 39.02929688 108.01195312 38 108 C37.40767904 106.18072848 36.81536338 104.36145522 36.22306824 102.54217529 C35.68287776 100.8830908 35.14260135 99.22403427 34.60224915 97.56500244 C33.0626934 92.83767495 31.52474256 88.10983428 29.98950195 83.38110352 C27.01067144 74.21128838 24.02287518 65.04503958 20.97802734 55.89689636 C19.68556163 52.01194735 18.40054519 48.12455216 17.11602783 44.23696899 C16.50137668 42.38382385 15.8830598 40.53189017 15.26092529 38.6812439 C14.38715112 36.08089409 13.52634465 33.47656013 12.66796875 30.87109375 C12.41130936 30.11854309 12.15464996 29.36599243 11.89021301 28.59063721 C10.08815608 23.05975218 9.43493192 17.80195997 9 12 C4.545 12.495 4.545 12.495 0 13 C0 8.71 0 4.42 0 0 Z " fill="#FEFEFE" transform="translate(2,45)"/>
<path d="M0 0 C12.21 0 24.42 0 37 0 C37 3.63 37 7.26 37 11 C35.02 11.99 35.02 11.99 33 13 C32.50630067 21.17248717 34.33855173 28.21368881 36.5 36.0625 C36.83386719 37.30966797 37.16773438 38.55683594 37.51171875 39.84179688 C38.33121915 42.89736266 39.16084788 45.94978406 40 49 C44.03031131 35.87788399 47.98811933 22.73887355 51.77758789 9.54492188 C52.05465576 8.58521484 52.33172363 7.62550781 52.6171875 6.63671875 C52.86065918 5.78811279 53.10413086 4.93950684 53.35498047 4.06518555 C54 2 54 2 55 0 C60.61 0 66.22 0 72 0 C77.29291643 16.92358474 82.3152076 33.89784592 87 51 C87.3242395 49.97398682 87.3242395 49.97398682 87.6550293 48.92724609 C95.60702594 23.80611778 95.60702594 23.80611778 100 12 C97.36 12 94.72 12 92 12 C92 8.04 92 4.08 92 0 C101.57 0 111.14 0 121 0 C121 3.63 121 7.26 121 11 C119.6696875 11.495 119.6696875 11.495 118.3125 12 C110.51582478 16.70742655 108.30992315 26.07428577 105.609375 34.3046875 C105.2192926 35.46501495 104.82921021 36.62534241 104.42730713 37.8208313 C103.19178693 41.50237647 101.97050086 45.18845163 100.75 48.875 C99.51213228 52.58188083 98.27140581 56.28779299 97.02984619 59.99343872 C96.26021987 62.29399013 95.4933342 64.59546054 94.72943115 66.8979187 C94.21319183 68.45060959 94.21319183 68.45060959 93.68652344 70.03466797 C93.38405701 70.94763641 93.08159058 71.86060486 92.7699585 72.80123901 C92 75 92 75 91 77 C85.39 77 79.78 77 74 77 C72.32621802 72.00168776 70.65338459 67.00307796 68.98291016 62.00366211 C68.41509863 60.30523667 67.84674722 58.60699162 67.27783203 56.90893555 C66.45721546 54.45930167 65.63858315 52.00901211 64.8203125 49.55859375 C64.44206833 48.43160316 64.44206833 48.43160316 64.05618286 47.28184509 C60 35.11457252 60 35.11457252 60 30 C59.34 30 58.68 30 58 30 C57.91234375 30.89589844 57.8246875 31.79179688 57.734375 32.71484375 C56.90408887 38.49636416 54.99452569 44.00500781 53.25 49.5625 C52.89164062 50.7160498 52.53328125 51.86959961 52.1640625 53.05810547 C49.64022319 61.1210004 46.94604442 69.08250562 44 77 C38.72 77 33.44 77 28 77 C27.5059668 75.57324951 27.01193359 74.14649902 26.50292969 72.67651367 C24.65498583 67.34044364 22.80592582 62.00476092 20.95654297 56.66918945 C20.15904184 54.36786131 19.36183608 52.06643079 18.56494141 49.76489258 C17.41387929 46.44064248 16.26172559 43.11677238 15.109375 39.79296875 C14.58256134 38.27040718 14.58256134 38.27040718 14.04510498 36.71708679 C13.70505432 35.73690079 13.36500366 34.75671478 13.01464844 33.74682617 C12.68557495 32.79609222 12.35650146 31.84535828 12.01745605 30.86581421 C11.31978116 28.90071055 10.5974802 26.94422742 9.85461426 24.99575806 C9.48783569 24.03205292 9.12105713 23.06834778 8.74316406 22.07543945 C8.40899475 21.21892288 8.07482544 20.36240631 7.73052979 19.47993469 C6.9597878 16.86349136 6.86462577 14.71224359 7 12 C5.02 12 3.04 12 1 12 C0.67 8.04 0.34 4.08 0 0 Z " fill="#FEFEFE" transform="translate(219,75)"/>
<path d="M0 0 C1.18142578 0.00966797 1.18142578 0.00966797 2.38671875 0.01953125 C4.3125 0.1875 4.3125 0.1875 5.3125 1.1875 C5.41994656 2.90459014 5.4587474 4.62602518 5.47021484 6.34643555 C5.48047699 7.44815598 5.49073914 8.5498764 5.50131226 9.6849823 C5.50861359 10.88593033 5.51591492 12.08687836 5.5234375 13.32421875 C5.55151372 15.84570953 5.58017823 18.36719382 5.609375 20.88867188 C5.65061126 24.88048928 5.68748062 28.87206866 5.71386719 32.86401367 C5.74148601 36.70517351 5.7873706 40.54577429 5.8359375 44.38671875 C5.83919037 45.57754562 5.84244324 46.7683725 5.84579468 47.99528503 C5.88424952 56.04466663 5.88424952 56.04466663 9.3125 63.1875 C12.55402142 64.77648109 14.81707833 65.51113603 18.40625 64.734375 C20.48471329 64.00536176 22.37238556 63.23156159 24.3125 62.1875 C24.99900635 61.86700684 25.6855127 61.54651367 26.39282227 61.21630859 C29.53404935 57.89650736 28.91588358 54.11153716 28.921875 49.70703125 C28.93841125 48.77904221 28.95494751 47.85105316 28.97198486 46.89494324 C29.02058427 43.92989565 29.04186222 40.96536134 29.0625 38 C29.0906497 35.99020838 29.12057571 33.9804408 29.15234375 31.97070312 C29.22634645 27.04301099 29.27584806 22.1156058 29.3125 17.1875 C26.0125 17.1875 22.7125 17.1875 19.3125 17.1875 C19.3125 13.2275 19.3125 9.2675 19.3125 5.1875 C20.56546875 4.99414062 21.8184375 4.80078125 23.109375 4.6015625 C24.7604718 4.33888801 26.41151049 4.07584802 28.0625 3.8125 C29.3 3.62300781 29.3 3.62300781 30.5625 3.4296875 C31.36171875 3.30078125 32.1609375 3.171875 32.984375 3.0390625 C33.7175293 2.92385254 34.45068359 2.80864258 35.20605469 2.68994141 C37.33480159 2.28545832 37.33480159 2.28545832 39.11602783 1.16390991 C41.76102457 -0.0118851 43.68198678 -0.01330298 46.5625 0.0625 C47.45453125 0.08054687 48.3465625 0.09859375 49.265625 0.1171875 C50.27882813 0.15199219 50.27882813 0.15199219 51.3125 0.1875 C51.33566034 8.34986415 51.35343395 16.51221459 51.36431217 24.67460346 C51.3695329 28.46464002 51.3766159 32.25465411 51.38793945 36.04467773 C51.39879704 39.70158802 51.40478295 43.35847668 51.40737724 47.01540184 C51.4092263 48.41126025 51.41283699 49.80711747 51.41823006 51.20296669 C51.42547844 53.15653964 51.42590838 55.11013431 51.42602539 57.0637207 C51.428246 58.1762471 51.43046661 59.2887735 51.43275452 60.43501282 C51.3125 63.1875 51.3125 63.1875 50.3125 66.1875 C53.6125 66.1875 56.9125 66.1875 60.3125 66.1875 C60.3125 70.1475 60.3125 74.1075 60.3125 78.1875 C50.7425 78.1875 41.1725 78.1875 31.3125 78.1875 C30.8175 74.7225 30.8175 74.7225 30.3125 71.1875 C29.48105469 71.75339844 28.64960937 72.31929688 27.79296875 72.90234375 C26.16294922 74.00255859 26.16294922 74.00255859 24.5 75.125 C23.42105469 75.85589844 22.34210937 76.58679688 21.23046875 77.33984375 C14.64744767 81.50820917 6.83795217 80.71339282 -0.6875 80.1875 C-5.70910624 78.89517486 -9.52360836 76.20434338 -12.66015625 72.01171875 C-18.56814089 61.52111484 -17.84896435 48.62605156 -17.8125 37 C-17.81636719 35.75541016 -17.82023437 34.51082031 -17.82421875 33.22851562 C-17.82292969 32.02517578 -17.82164062 30.82183594 -17.8203125 29.58203125 C-17.81862061 27.95551636 -17.81862061 27.95551636 -17.81689453 26.29614258 C-17.68734927 23.18387884 -17.26573536 20.24548649 -16.6875 17.1875 C-20.3175 17.1875 -23.9475 17.1875 -27.6875 17.1875 C-27.6875 13.2275 -27.6875 9.2675 -27.6875 5.1875 C-26.36234375 4.99414062 -25.0371875 4.80078125 -23.671875 4.6015625 C-21.92702971 4.33889762 -20.18224094 4.07585712 -18.4375 3.8125 C-17.56480469 3.68617187 -16.69210937 3.55984375 -15.79296875 3.4296875 C-14.94863281 3.30078125 -14.10429687 3.171875 -13.234375 3.0390625 C-12.45932617 2.92385254 -11.68427734 2.80864258 -10.88574219 2.68994141 C-6.83692515 1.76452321 -4.31607977 -0.07847418 0 0 Z " fill="#FEFEFE" transform="translate(520.6875,72.8125)"/>
<path d="M0 0 C6.75533025 5.95685782 9.14259769 12.15316707 10 21 C10.14349947 24.79253802 10.14181267 28.58013975 10.125 32.375 C10.12306641 33.426875 10.12113281 34.47875 10.11914062 35.5625 C10.07075236 44.40142353 9.67046685 53.18815003 9 62 C12.3 62 15.6 62 19 62 C19 65.96 19 69.92 19 74 C9.1 74 -0.8 74 -11 74 C-11.33 72.35 -11.66 70.7 -12 69 C-12.598125 69.5775 -13.19625 70.155 -13.8125 70.75 C-21.04875809 75.85794688 -29.18847322 78.17291538 -38 77 C-43.74277013 75.85349331 -47.25268581 73.44996874 -50.8125 68.81640625 C-54.23839759 63.57613527 -54.67098378 58.09046818 -54 52 C-52.21873664 44.74492735 -48.8473646 40.01554321 -42.5625 35.9375 C-32.96081955 30.46693904 -22.95737215 28.39486026 -12 28 C-12.23001861 18.50050208 -12.23001861 18.50050208 -16 10 C-18.02000962 8.27925106 -19.30020413 7.99716682 -21.9296875 8.0078125 C-24.99909764 8.26640749 -27.37732211 8.64148849 -30.0625 10.1875 C-31.27826009 12.08802995 -31.27826009 12.08802995 -30.5 14.8125 C-29.8504149 18.95360501 -30.64172895 20.57670332 -33 24 C-36.43985769 26.4235361 -38.40905759 27 -42.625 27 C-46.75187922 25.77722097 -47.89470101 24.72475975 -50 21 C-51.56262633 15.37454522 -50.81561769 12.06811185 -48 7 C-38.15952239 -5.52424423 -13.22089739 -9.01539289 0 0 Z M-29.5625 46.3125 C-31.39555131 49.73950897 -32.0696837 52.09771303 -32 56 C-30.21013047 59.1235883 -30.21013047 59.1235883 -27 61 C-21.93088294 61.72415958 -20.03699068 61.58448566 -15.5625 59.0625 C-13.7249496 57.59396498 -13.7249496 57.59396498 -12 56 C-11.92680379 53.30345146 -11.90757463 50.63308542 -11.9375 47.9375 C-11.94201172 47.17888672 -11.94652344 46.42027344 -11.95117188 45.63867188 C-11.9629932 43.75908129 -11.98092922 41.87953101 -12 40 C-18.60871988 39.68079528 -24.64931722 41.87865213 -29.5625 46.3125 Z " fill="#FEFEFE" transform="translate(200,77)"/>
<path d="M0 0 C7.17595609 5.5586478 10.94050307 13.86267158 12.6875 22.59765625 C12.6875 26.22765625 12.6875 29.85765625 12.6875 33.59765625 C-3.4825 33.59765625 -19.6525 33.59765625 -36.3125 33.59765625 C-34.08247789 49.24362642 -34.08247789 49.24362642 -24.3125 59.59765625 C-17.06215493 62.01443794 -10.68848302 61.16254934 -3.875 57.84765625 C-0.07365056 55.84321633 2.77678561 53.76297213 5.6875 50.59765625 C9.50110406 52.09585784 11.22676661 54.39766892 13.6875 57.59765625 C5.69419789 67.36724771 -2.41279906 74.43357285 -15.36987305 75.81738281 C-27.89825835 76.52555422 -38.40048675 74.9673275 -48.30859375 66.63671875 C-56.53876064 58.26216296 -59.38484162 47.68391779 -59.75 36.22265625 C-59.43780802 23.40977713 -55.44823763 12.61199192 -46.24609375 3.56640625 C-33.07416411 -7.5555093 -14.82894124 -8.99255051 0 0 Z M-31.625 10.72265625 C-33.96979442 14.38045726 -33.96979442 14.38045726 -35.3125 22.59765625 C-26.4025 22.59765625 -17.4925 22.59765625 -8.3125 22.59765625 C-9.75995511 13.00558618 -9.75995511 13.00558618 -15.3125 6.59765625 C-21.79123263 4.55805524 -26.67594684 6.17487767 -31.625 10.72265625 Z " fill="#FEFEFE" transform="translate(402.3125,77.40234375)"/>
<path d="M0 0 C3.74934237 3.46093142 4.31659323 5.00063006 4.8125 10.125 C4.66568654 14.49677858 3.50591641 17.02816277 0.4375 20.25 C-2.87646137 21.93932955 -5.90434565 22.62494328 -9.56640625 21.796875 C-12.99664826 20.45055872 -14.50047441 19.34303839 -16.5625 16.25 C-16.5625 15.26 -16.5625 14.27 -16.5625 13.25 C-17.80507487 13.89132896 -19.03095887 14.56499353 -20.25 15.25 C-20.93449219 15.62125 -21.61898437 15.9925 -22.32421875 16.375 C-26.07986015 19.52108703 -28.98103562 23.58911362 -30.039505 28.43286133 C-30.23030846 30.74823058 -30.28109694 33.02066032 -30.26953125 35.34375 C-30.28465256 36.17588013 -30.29977386 37.00801025 -30.31535339 37.86535645 C-30.35795535 40.49385254 -30.36704123 43.12119427 -30.375 45.75 C-30.39816586 47.54430094 -30.42353551 49.33857485 -30.45117188 51.1328125 C-30.51375178 55.50530914 -30.5463017 59.87709557 -30.5625 64.25 C-27.5925 64.25 -24.6225 64.25 -21.5625 64.25 C-21.5625 68.21 -21.5625 72.17 -21.5625 76.25 C-34.7625 76.25 -47.9625 76.25 -61.5625 76.25 C-61.5625 72.95 -61.5625 69.65 -61.5625 66.25 C-60.428125 65.816875 -59.29375 65.38375 -58.125 64.9375 C-56.949375 64.380625 -55.77375 63.82375 -54.5625 63.25 C-53.651008 60.51552399 -53.42012228 58.81658555 -53.37304688 55.99389648 C-53.35632935 55.13968613 -53.33961182 54.28547577 -53.3223877 53.40538025 C-53.30881226 52.4865657 -53.29523682 51.56775116 -53.28125 50.62109375 C-53.26284058 49.67565201 -53.24443115 48.73021027 -53.22546387 47.75611877 C-53.14673677 43.7067502 -53.07895018 39.65721522 -53.01025391 35.60766602 C-52.95859249 32.6537233 -52.90132461 29.69992615 -52.84375 26.74609375 C-52.83017456 25.82525497 -52.81659912 24.9044162 -52.8026123 23.95567322 C-52.78589478 23.10461502 -52.76917725 22.25355682 -52.75195312 21.37670898 C-52.73942505 20.62630844 -52.72689697 19.8759079 -52.71398926 19.10276794 C-52.5625 17.25 -52.5625 17.25 -51.5625 15.25 C-55.1925 15.58 -58.8225 15.91 -62.5625 16.25 C-62.5625 11.96 -62.5625 7.67 -62.5625 3.25 C-61.06009766 3.19392578 -61.06009766 3.19392578 -59.52734375 3.13671875 C-51.39333672 3.02897003 -51.39333672 3.02897003 -43.75 0.6875 C-39.21531084 -1.3575559 -35.50764027 -0.95322494 -30.5625 -0.75 C-30.0675 4.2 -30.0675 4.2 -29.5625 9.25 C-28.98242188 8.70730469 -28.40234375 8.16460937 -27.8046875 7.60546875 C-19.5190686 0.01715441 -11.20612719 -5.50476423 0 0 Z " fill="#FEFEFE" transform="translate(486.5625,74.75)"/>
<path d="M0 0 C3.4146514 1.42938896 4.76853698 2.64881474 6.8125 5.75 C8.19317311 9.52868431 8.49945097 12.00439225 8 16 C5.97333762 19.70390021 4.51955484 21.65363011 1 24 C-2.06702904 24.54563251 -4.9298758 24.52337794 -8 24 C-12.12524844 21.01577772 -14.11535915 18.01296483 -15 13 C-14.65140142 8.49436341 -13.76900135 5.74977632 -10.5 2.5625 C-6.66124498 0.16327811 -4.5736005 -0.35871376 0 0 Z " fill="#FEFEFE" transform="translate(605,129)"/>
</svg>