<?xml version="1.0" encoding="UTF-8"?>
<svg version="1.1" xmlns="http://www.w3.org/2000/svg" width="135" height="42">
<path d="M0 0 C0.70125 -0.144375 1.4025 -0.28875 2.125 -0.4375 C6.06471401 -1.20831361 9.99528734 -1.28132279 14 -1 C15 0 15 0 15.09765625 3.16015625 C15.08605469 4.44792969 15.07445313 5.73570313 15.0625 7.0625 C15.05347656 8.35285156 15.04445313 9.64320312 15.03515625 10.97265625 C15.02355469 11.97167969 15.01195313 12.97070312 15 14 C15.66 13.67 16.32 13.34 17 13 C17.46651207 10.87423218 17.46651207 10.87423218 17.625 8.4375 C17.69976562 7.61121094 17.77453125 6.78492188 17.8515625 5.93359375 C17.90054688 5.29550781 17.94953125 4.65742188 18 4 C17.34 4 16.68 4 16 4 C16 2.68 16 1.36 16 0 C20.455 -0.495 20.455 -0.495 25 -1 C25 3.95 25 8.9 25 14 C25.99 14 26.98 14 28 14 C28 13.34 28 12.68 28 12 C29.65 12 31.3 12 33 12 C34.125 15.75 34.125 15.75 33 18 C29.39610336 18.11601004 25.79268533 18.18718408 22.1875 18.25 C21.16333984 18.28351562 20.13917969 18.31703125 19.08398438 18.3515625 C18.10107422 18.36445312 17.11816406 18.37734375 16.10546875 18.390625 C15.19949951 18.41157227 14.29353027 18.43251953 13.36010742 18.45410156 C11 18 11 18 9.21289062 16.12304688 C7.83911253 13.71838215 7.5146333 11.99901285 7.3125 9.25 C7.21388672 8.05117188 7.21388672 8.05117188 7.11328125 6.828125 C7.07589844 6.22484375 7.03851563 5.6215625 7 5 C6.21625 5.165 5.4325 5.33 4.625 5.5 C2 6 2 6 0 6 C-0.33 8.64 -0.66 11.28 -1 14 C-0.34 14 0.32 14 1 14 C1 15.32 1 16.64 1 18 C-2.3 18 -5.6 18 -9 18 C-9 16.68 -9 15.36 -9 14 C-8.34 14 -7.68 14 -7 14 C-7 11.03 -7 8.06 -7 5 C-7.66 5 -8.32 5 -9 5 C-8.67 3.35 -8.34 1.7 -8 0 C-4.71303767 -0.79953138 -3.28976808 -1.09658936 0 0 Z " fill="#FEFEFE" transform="translate(101,16)"/>
<path d="M0 0 C3.63 0 7.26 0 11 0 C11 1.32 11 2.64 11 4 C10.34 4 9.68 4 9 4 C9.66 6.31 10.32 8.62 11 11 C13.41250727 5.6400004 13.41250727 5.6400004 15 0 C16.65 0 18.3 0 20 0 C20.50757862 1.41396902 21.00574925 2.83131729 21.5 4.25 C21.7784375 5.03890625 22.056875 5.8278125 22.34375 6.640625 C23 9 23 9 23 13 C23.66 13 24.32 13 25 13 C25.144375 11.88625 25.28875 10.7725 25.4375 9.625 C26 6 26 6 27 4 C26.34 4 25.68 4 25 4 C25 2.68 25 1.36 25 0 C27.97 0 30.94 0 34 0 C34 1.32 34 2.64 34 4 C33.34 4.33 32.68 4.66 32 5 C31.1587365 6.92167646 31.1587365 6.92167646 30.4921875 9.25390625 C30.22792969 10.10791016 29.96367187 10.96191406 29.69140625 11.84179688 C29.42199219 12.73962891 29.15257813 13.63746094 28.875 14.5625 C28.59785156 15.46419922 28.32070313 16.36589844 28.03515625 17.29492188 C27.34988996 19.52794478 26.67185325 21.76291196 26 24 C24.35 24.33 22.7 24.66 21 25 C19.68 21.7 18.36 18.4 17 15 C14.81024227 18.28463659 14.00193437 21.20696275 13 25 C11.35 25 9.7 25 8 25 C6.99263372 22.06497405 5.99539496 19.12660539 5 16.1875 C4.71382813 15.35412109 4.42765625 14.52074219 4.1328125 13.66210938 C3.72675781 12.45844727 3.72675781 12.45844727 3.3125 11.23046875 C3.06113281 10.49207764 2.80976562 9.75368652 2.55078125 8.99291992 C2 7 2 7 2 4 C1.34 4 0.68 4 0 4 C0 2.68 0 1.36 0 0 Z " fill="#FEFEFE" transform="translate(0,9)"/>
<path d="M0 0 C3.3 0 6.6 0 10 0 C10 1.98 10 3.96 10 6 C10.66 4.02 11.32 2.04 12 0 C13.65 0 15.3 0 17 0 C18.25664978 2.90600261 19 4.79604584 19 8 C19.66 8 20.32 8 21 8 C20.67 5.36 20.34 2.72 20 0 C22.64 0 25.28 0 28 0 C28 1.32 28 2.64 28 4 C27.34 4 26.68 4 26 4 C25.80664062 4.67546875 25.61328125 5.3509375 25.4140625 6.046875 C25.15367188 6.93890625 24.89328125 7.8309375 24.625 8.75 C24.24214844 10.07257812 24.24214844 10.07257812 23.8515625 11.421875 C23.0790066 13.76080572 22.16374324 15.83442562 21 18 C19.35 18 17.7 18 16 18 C15.34 16.02 14.68 14.04 14 12 C13.01 13.98 12.02 15.96 11 18 C9.35 18 7.7 18 6 18 C5.32739649 16.23141309 4.66211605 14.46003984 4 12.6875 C3.62875 11.70136719 3.2575 10.71523438 2.875 9.69921875 C2 7 2 7 2 4 C1.34 4 0.68 4 0 4 C0 2.68 0 1.36 0 0 Z " fill="#FEFEFE" transform="translate(47,16)"/>
<path d="M0 0 C2.35348271 2.35348271 2.36468749 3.21466691 2.6875 6.4375 C2.77386719 7.21996094 2.86023437 8.00242187 2.94921875 8.80859375 C3 11 3 11 2 14 C2.99 14.33 3.98 14.66 5 15 C4.67 15.99 4.34 16.98 4 18 C2.1746875 17.9690625 2.1746875 17.9690625 0.3125 17.9375 C-2.31352766 17.91434279 -4.18847085 18.05140114 -6.75 18.75 C-9 19 -9 19 -11.375 17.375 C-13 15 -13 15 -12.875 12.375 C-12 10 -12 10 -10 8 C-10.66 7.67 -11.32 7.34 -12 7 C-12.3125 4.6875 -12.3125 4.6875 -12 2 C-8.07829697 -1.56518458 -4.97015061 -1.21909355 0 0 Z M-6 3 C-6.33 4.32 -6.66 5.64 -7 7 C-6.01 7 -5.02 7 -4 7 C-4 5.68 -4 4.36 -4 3 C-4.66 3 -5.32 3 -6 3 Z M-6 11 C-5.67 11.99 -5.34 12.98 -5 14 C-4.67 13.01 -4.34 12.02 -4 11 C-4.66 11 -5.32 11 -6 11 Z " fill="#FEFEFE" transform="translate(44,16)"/>
<path d="M0 0 C2.875 1.625 2.875 1.625 5 4 C5.3125 7.25 5.3125 7.25 5 10 C1.7 10 -1.6 10 -5 10 C-4.34 11.32 -3.68 12.64 -3 14 C-0.36 13.67 2.28 13.34 5 13 C4.42655063 15.86724686 4.1385485 16.8614515 2 19 C-1.03704568 19.50421994 -3.95802594 19.45467228 -7 19 C-9.50160818 17.12379387 -10.61945652 15.76108697 -12 13 C-12.59873168 7.73116124 -11.25400021 5.1153532 -8 1 C-5.14675563 -0.42662219 -3.16545451 -0.31033868 0 0 Z M-4 4 C-4.33 4.66 -4.66 5.32 -5 6 C-3.68 6 -2.36 6 -1 6 C-1 5.34 -1 4.68 -1 4 C-1.99 4 -2.98 4 -4 4 Z " fill="#FEFEFE" transform="translate(86,15)"/>
</svg>
